# xmcd CD database file
#
# Track frame offsets:
#	150
#	11588
#	23746
#	37424
#	64794
#	76990
#	89472
#	101646
#	116980
#	129111
#	138903
#	153787
#
# Disc length: 2305 seconds
#
# Revision: 0
# Processed by: cddbd v1.5.2PL0 Copyright (c) Steve Scherf et al.
# Submitted via: CDex 1.51
#
DISCID=9608ff0c
DTITLE=Supercharge - Now Jump
DYEAR=1980
DGENRE=Jazz
TTITLE0=Rumba Rudie
TTITLE1=She Dont Know
TTITLE2=Red Dress
TTITLE3=Foxy
TTITLE4=Cool Jerk
TTITLE5=Tell Me You Feel The Same
TTITLE6=Peaches and Cream
TTITLE7=Now Jump
TTITLE8=Show Me How To Do It
TTITLE9=No Place Like Home
TTITLE10=Bad Mouthin
TTITLE11=One More Teardrop Falls
EXTD=YEAR: 1980
EXTT0=
EXTT1=
EXTT2=
EXTT3=
EXTT4=
EXTT5=
EXTT6=
EXTT7=
EXTT8=
EXTT9=
EXTT10=
EXTT11=
PLAYORDER=
